<?xml version="1.0" standalone="no"?>
<!DOCTYPE svg PUBLIC "-//W3C//DTD SVG 20010904//EN"
 "http://www.w3.org/TR/2001/REC-SVG-20010904/DTD/svg10.dtd">
<svg version="1.0" xmlns="http://www.w3.org/2000/svg"
 width="1266.000000pt" height="1280.000000pt" viewBox="0 0 1266.000000 1280.000000"
 preserveAspectRatio="xMidYMid meet">
<metadata>
Created by potrace 1.15, written by Peter Selinger 2001-2017
</metadata>
<g transform="translate(0.000000,1280.000000) scale(0.100000,-0.100000)"
fill="#000000" stroke="none">
<path d="M3452 10240 c-6 -11 -12 -46 -12 -77 0 -46 7 -73 37 -132 21 -43 44
-76 55 -79 22 -5 24 -22 3 -22 -8 0 -15 5 -15 10 0 6 -9 10 -19 10 -11 0 -21
4 -23 8 -4 11 -112 62 -131 62 -9 0 -19 5 -22 10 -3 6 -17 10 -30 10 -13 0
-27 5 -30 10 -3 6 -17 10 -31 10 -13 0 -24 5 -24 10 0 6 -15 10 -34 10 -19 0
-38 5 -41 10 -3 6 -30 10 -59 10 -67 0 -86 -18 -86 -82 0 -46 26 -110 68 -162
23 -30 31 -59 10 -38 -8 8 -49 12 -118 12 -125 0 -140 -9 -148 -88 -4 -44 15
-112 37 -132 4 -3 13 -18 21 -35 8 -16 21 -38 28 -47 12 -14 12 -21 2 -33 -7
-8 -19 -15 -26 -15 -8 0 -14 -10 -14 -24 0 -14 -4 -28 -10 -31 -5 -3 -10 -28
-10 -56 0 -27 5 -49 10 -49 6 0 10 -11 10 -23 0 -13 9 -32 20 -42 11 -10 20
-23 20 -29 0 -5 16 -27 36 -47 l35 -36 -20 -37 c-22 -39 -30 -146 -11 -146 6
0 10 -9 10 -20 0 -29 18 -58 74 -117 45 -47 48 -54 35 -70 -30 -38 -39 -61
-26 -67 9 -5 9 -7 0 -12 -15 -7 -17 -37 -4 -62 5 -9 17 -33 26 -52 28 -59 41
-80 71 -111 22 -23 25 -32 16 -41 -24 -24 -14 -111 21 -180 34 -65 77 -118 97
-118 15 0 12 -26 -5 -40 -17 -14 -21 -95 -5 -105 6 -3 10 -15 10 -27 0 -31 30
-78 89 -140 52 -54 54 -59 41 -82 -27 -51 -8 -161 35 -196 8 -7 15 -18 15 -24
0 -7 20 -32 45 -56 25 -24 45 -50 45 -57 0 -16 -21 -55 -35 -65 -7 -5 -6 -14
3 -28 6 -11 12 -31 12 -46 0 -14 10 -40 23 -57 12 -17 27 -41 32 -52 6 -11 25
-29 44 -40 18 -11 47 -32 63 -46 31 -26 31 -26 15 -59 -24 -48 -23 -132 3
-148 20 -12 20 -12 0 -47 -11 -20 -20 -46 -20 -58 0 -27 51 -78 98 -98 38 -16
41 -30 10 -44 -32 -14 -51 -59 -51 -119 0 -48 3 -53 49 -94 42 -38 46 -46 36
-63 -7 -10 -12 -40 -12 -67 0 -40 5 -53 28 -74 15 -14 42 -31 60 -39 32 -14
33 -15 27 -59 -4 -25 -11 -49 -16 -55 -5 -5 -9 -28 -9 -51 0 -35 6 -47 37 -78
21 -20 43 -36 49 -36 6 0 17 -7 24 -15 10 -12 9 -20 -4 -40 -13 -19 -16 -44
-14 -102 3 -64 6 -78 23 -87 11 -6 22 -14 25 -17 3 -3 20 -12 38 -20 l33 -14
-7 -105 -6 -105 29 -25 c40 -34 69 -50 92 -50 36 0 45 -27 42 -118 l-2 -87 33
-31 c18 -16 51 -39 73 -49 69 -34 75 -42 75 -105 0 -97 45 -154 137 -174 36
-8 63 -50 63 -97 0 -54 30 -104 73 -123 21 -9 41 -26 44 -36 3 -11 14 -22 24
-25 11 -4 19 -16 19 -29 0 -13 7 -29 16 -36 34 -29 37 -50 12 -79 -42 -46 -52
-75 -38 -108 13 -29 50 -53 81 -53 10 0 19 -6 22 -12 3 -10 10 -10 30 1 15 8
30 11 34 7 12 -12 -24 -38 -56 -40 -17 -1 -36 -7 -43 -14 -6 -6 -17 -12 -24
-12 -7 0 -14 -4 -16 -8 -4 -10 -150 -82 -166 -82 -7 0 -12 -4 -12 -8 0 -5 -16
-14 -35 -22 -20 -8 -43 -22 -52 -32 -9 -10 -20 -18 -24 -18 -16 0 -89 -35 -89
-42 0 -5 -8 -8 -18 -8 -9 0 -23 -9 -29 -19 -7 -11 -25 -22 -42 -26 -16 -3 -35
-13 -42 -21 -6 -7 -45 -30 -85 -50 -41 -20 -76 -40 -79 -45 -8 -12 -138 -74
-149 -71 -5 2 -17 -4 -26 -13 -25 -23 -251 -135 -272 -135 -9 0 -20 -4 -23
-10 -3 -5 -19 -10 -35 -10 -16 0 -32 -5 -35 -10 -4 -6 -15 -8 -25 -5 -10 3
-21 1 -25 -5 -3 -5 -19 -10 -35 -10 -16 0 -32 -5 -35 -10 -3 -6 -17 -10 -31
-10 -13 0 -24 -4 -24 -10 0 -5 7 -10 15 -10 8 0 15 -4 15 -10 0 -5 -7 -10 -15
-10 -8 0 -15 -7 -15 -15 0 -9 9 -15 24 -15 15 0 26 -7 29 -20 4 -14 14 -20 35
-20 17 0 34 4 37 10 3 5 24 10 45 10 21 0 42 5 45 10 3 6 17 10 30 10 13 0 26
4 30 9 3 5 19 12 35 16 17 4 65 24 107 46 42 22 78 37 80 35 2 -2 38 14 80 35
42 21 86 39 99 39 12 0 25 4 29 9 3 6 31 22 63 36 31 15 65 31 74 36 22 11 38
12 38 1 0 -5 -16 -14 -35 -22 -26 -10 -32 -17 -24 -26 7 -8 7 -14 -1 -19 -5
-3 -10 -28 -10 -54 0 -37 5 -52 23 -69 24 -23 90 -31 102 -12 3 5 15 10 25 10
11 0 34 8 52 18 32 18 126 40 100 23 -11 -6 -10 -15 5 -41 21 -37 66 -68 101
-69 12 -1 22 -5 22 -11 0 -5 9 -10 20 -10 11 0 20 -4 20 -10 0 -5 19 -10 43
-10 24 0 48 -5 55 -12 9 -9 15 -9 24 0 7 7 27 12 46 12 29 0 33 -2 22 -15 -10
-12 -9 -16 5 -21 9 -4 21 -2 28 5 6 6 28 11 49 11 21 0 46 4 56 9 49 26 170
81 178 81 5 0 27 21 48 45 22 25 45 45 53 45 7 0 17 8 20 18 22 57 79 58 140
2 24 -23 48 -38 54 -35 5 4 15 2 22 -3 16 -13 277 -14 293 -1 8 7 24 3 50 -12
30 -16 42 -19 56 -10 11 7 89 11 217 11 136 0 202 4 207 11 4 7 21 9 40 6 19
-3 36 -1 39 4 4 5 58 9 121 9 69 0 114 4 114 10 0 6 28 10 65 10 37 0 65 4 65
10 0 6 15 10 34 10 19 0 38 5 41 10 3 6 19 10 35 10 16 0 32 5 35 10 4 6 18
11 33 11 15 1 91 3 169 5 90 3 150 1 162 -6 13 -7 22 -7 26 0 3 5 24 10 45 10
21 0 42 5 45 10 3 6 26 10 51 10 24 0 44 5 44 10 0 6 25 10 55 10 30 0 55 5
55 10 0 6 30 10 69 10 39 0 73 5 76 10 4 6 12 10 18 9 19 -3 69 13 105 33 18
10 38 18 45 18 16 0 123 54 146 73 9 8 32 21 51 31 19 9 44 22 54 29 33 21
116 102 116 113 0 6 12 21 26 35 27 25 64 97 64 123 0 8 5 18 10 21 6 3 10 21
10 40 0 19 5 37 10 40 6 3 10 39 10 80 0 41 5 77 10 80 6 4 10 63 10 145 0 82
-4 141 -10 145 -5 3 -10 42 -10 85 0 61 -5 88 -20 115 -11 20 -20 44 -20 55 0
10 -10 31 -23 47 -13 15 -26 36 -30 46 -3 9 -12 17 -20 17 -7 0 -26 14 -42 30
-43 45 -180 110 -231 110 -24 0 -46 5 -49 10 -3 6 -40 10 -81 10 -74 0 -87 7
-59 30 8 7 15 19 15 28 0 9 8 25 18 36 10 12 27 41 37 66 10 25 27 54 37 66
10 11 18 25 18 31 0 6 3 13 8 15 11 5 62 75 62 86 0 5 7 15 15 22 9 7 24 32
35 54 10 23 28 50 39 60 12 11 21 23 21 27 0 9 18 32 78 100 17 20 32 41 32
46 0 5 20 29 45 53 25 24 45 49 45 55 0 6 20 31 45 55 25 24 45 49 45 55 0 14
69 80 93 88 9 4 17 12 17 19 0 6 45 59 101 117 56 58 149 156 208 218 58 62
111 112 117 112 6 1 19 10 29 21 10 11 23 20 30 20 6 0 29 18 50 41 22 22 58
49 80 59 51 25 76 41 96 63 9 9 19 17 23 17 14 0 95 40 101 50 3 5 30 21 58
34 29 13 59 31 66 40 7 9 19 16 25 16 7 0 30 18 51 41 22 22 58 49 80 59 22
10 49 28 59 39 11 12 23 21 28 21 5 0 39 29 74 65 36 36 68 65 72 65 10 0 72
63 72 73 0 3 29 35 65 71 36 35 65 69 65 74 0 4 10 18 23 30 13 12 29 38 37
57 8 19 20 35 28 35 8 0 12 6 9 14 -3 8 5 36 19 61 13 25 24 55 24 65 0 10 5
22 10 25 6 3 10 17 10 30 0 13 5 25 12 27 15 5 13 131 -4 157 -9 15 -9 23 0
34 10 12 8 16 -9 20 -19 5 -20 8 -9 21 10 13 10 16 -4 16 -9 0 -22 16 -30 35
-8 19 -22 35 -30 35 -9 0 -16 9 -16 20 0 14 -7 20 -23 20 -13 0 -28 5 -33 10
-13 13 -74 -16 -74 -36 0 -8 -6 -14 -13 -14 -7 0 -19 -16 -27 -35 -9 -22 -20
-35 -32 -35 -15 0 -16 -3 -6 -19 9 -15 9 -23 -1 -35 -9 -11 -10 -16 -2 -16 6
0 11 -9 11 -20 0 -21 -24 -28 -35 -10 -3 6 -17 10 -31 10 -13 0 -24 5 -24 10
0 12 -87 14 -92 2 -1 -4 -29 -20 -60 -36 -32 -15 -60 -31 -63 -36 -3 -5 -12
-7 -20 -3 -9 3 -15 -1 -15 -11 0 -9 -4 -16 -9 -16 -5 0 -11 -8 -13 -18 -5 -16
-19 -20 -93 -25 -49 -3 -93 -11 -99 -17 -5 -5 -20 -10 -32 -10 -13 0 -29 -9
-37 -21 -9 -13 -17 -16 -22 -10 -10 18 -25 12 -25 -9 0 -14 -7 -20 -23 -20
-13 0 -32 -9 -42 -20 -30 -33 -76 -52 -92 -38 -9 7 -17 8 -21 2 -13 -17 -114
-63 -128 -57 -9 3 -14 -1 -14 -12 0 -12 -5 -15 -20 -10 -13 4 -20 2 -20 -7 0
-17 -74 -50 -95 -42 -10 4 -15 0 -15 -10 0 -9 -6 -16 -14 -16 -8 0 -17 -6 -20
-12 -5 -10 -7 -10 -12 0 -5 10 -12 8 -29 -8 -14 -13 -37 -22 -64 -23 -23 -1
-41 -6 -41 -13 0 -6 -21 -21 -47 -34 -27 -13 -56 -31 -66 -39 -21 -18 -56 -39
-79 -47 -9 -3 -18 -14 -21 -25 -3 -10 -12 -19 -21 -19 -9 0 -16 -4 -16 -10 0
-5 -13 -10 -30 -10 -34 0 -98 -27 -121 -52 -9 -10 -20 -18 -24 -18 -4 0 -18
-9 -32 -19 -13 -11 -31 -17 -39 -14 -10 4 -17 -2 -21 -16 -3 -11 -12 -21 -19
-21 -8 0 -14 -6 -14 -13 0 -8 -9 -22 -20 -32 -16 -14 -23 -16 -32 -7 -16 16
-28 15 -28 -3 0 -8 -6 -15 -13 -15 -20 0 -73 -28 -87 -45 -7 -8 -18 -15 -24
-15 -7 0 -23 -11 -36 -25 -13 -14 -29 -25 -35 -25 -14 0 -50 -38 -58 -61 -3
-9 -30 -29 -60 -43 -55 -27 -207 -167 -207 -191 0 -7 -8 -16 -17 -19 -34 -12
-65 -34 -107 -75 -23 -23 -47 -41 -53 -41 -12 0 -43 -54 -43 -75 0 -6 -11 -18
-25 -25 -14 -7 -25 -17 -25 -22 0 -4 -6 -8 -13 -8 -15 0 -97 -81 -97 -95 0
-11 -47 -35 -68 -35 -15 0 -60 -18 -125 -51 -22 -10 -44 -19 -51 -19 -7 0 -43
-16 -80 -35 -38 -19 -75 -35 -82 -35 -14 0 -53 -19 -64 -30 -19 -20 -64 -40
-88 -40 -21 0 -31 -6 -35 -20 -3 -11 -12 -20 -21 -20 -12 0 -16 10 -16 44 0
25 -4 48 -10 51 -5 3 -10 33 -10 65 0 32 -4 61 -9 64 -4 3 -11 37 -15 76 -4
38 -11 72 -17 75 -5 4 -9 28 -9 55 0 27 -4 52 -10 55 -5 3 -10 28 -10 55 0 27
-4 52 -10 55 -5 3 -10 37 -10 75 0 38 -4 71 -9 75 -5 3 -13 34 -16 70 -4 36
-11 68 -16 71 -5 3 -9 15 -9 28 0 22 -62 154 -77 165 -5 3 -21 31 -37 61 -48
96 -71 135 -86 150 -9 8 -24 31 -34 50 -29 57 -42 79 -59 98 -10 10 -17 23
-17 29 0 5 -11 20 -25 33 -14 13 -25 28 -25 33 0 5 -8 17 -17 26 -20 18 -39
46 -52 78 -6 11 -14 24 -20 27 -6 4 -18 24 -28 44 -18 38 -59 103 -71 112 -4
3 -14 19 -22 35 -8 17 -21 38 -29 48 -16 19 -30 43 -57 97 -10 19 -20 37 -24
40 -15 14 -58 79 -70 107 -8 17 -22 34 -31 36 -10 3 -27 25 -38 49 -11 25 -27
51 -36 58 -8 7 -15 17 -15 23 0 5 -11 25 -25 43 -14 18 -25 37 -25 41 0 5 -13
22 -30 38 -16 16 -30 34 -30 40 0 6 -11 22 -25 35 -14 13 -25 29 -25 35 0 6
-16 26 -35 45 -19 19 -35 37 -35 42 0 8 -23 35 -102 123 -27 28 -48 56 -48 61
0 6 -20 30 -45 54 -25 24 -45 49 -45 55 0 6 -31 42 -70 80 -38 38 -70 74 -70
80 0 13 -342 355 -355 355 -6 0 -44 34 -85 75 -41 41 -79 75 -85 75 -6 0 -35
25 -65 55 -30 30 -60 55 -67 55 -7 0 -13 7 -13 15 0 8 -6 15 -13 15 -7 0 -42
29 -77 65 -35 36 -68 65 -72 65 -4 0 -34 26 -67 58 -72 69 -136 122 -150 122
-5 0 -13 9 -16 20 -3 11 -12 20 -19 20 -7 0 -23 11 -36 25 -13 14 -29 25 -36
25 -6 0 -18 7 -25 16 -7 9 -22 20 -34 25 -11 5 -27 13 -35 18 -91 53 -147 64
-168 31z"/>
<path d="M10335 8070 c-3 -5 -1 -10 4 -10 6 0 11 5 11 10 0 6 -2 10 -4 10 -3
0 -8 -4 -11 -10z"/>
<path d="M15 210 c-3 -5 3 -10 14 -10 12 0 21 5 21 10 0 6 -6 10 -14 10 -8 0
-18 -4 -21 -10z"/>
<path d="M75 190 c-3 -5 3 -10 14 -10 12 0 21 5 21 10 0 6 -6 10 -14 10 -8 0
-18 -4 -21 -10z"/>
<path d="M12265 190 c-3 -5 -1 -10 4 -10 6 0 11 5 11 10 0 6 -2 10 -4 10 -3 0
-8 -4 -11 -10z"/>
<path d="M310 111 c0 -28 5 -51 10 -51 13 0 13 87 0 95 -6 4 -10 -13 -10 -44z"/>
<path d="M17 123 c-14 -13 -6 -33 13 -33 11 0 20 4 20 9 0 13 -26 32 -33 24z"/>
<path d="M412 98 c-19 -19 -14 -28 13 -28 27 0 32 12 12 29 -10 8 -17 7 -25
-1z"/>
<path d="M360 79 c0 -5 5 -7 10 -4 6 3 10 8 10 11 0 2 -4 4 -10 4 -5 0 -10 -5
-10 -11z"/>
<path d="M765 50 c-8 -12 20 -24 35 -15 6 3 8 11 5 16 -8 12 -32 12 -40 -1z"/>
<path d="M360 35 c0 -8 9 -15 20 -15 11 0 20 7 20 15 0 8 -9 15 -20 15 -11 0
-20 -7 -20 -15z"/>
<path d="M95 21 l-30 -16 33 -3 c32 -3 62 11 62 29 0 14 -31 9 -65 -10z"/>
<path d="M530 15 c-10 -13 -9 -15 9 -15 12 0 21 6 21 15 0 8 -4 15 -9 15 -5 0
-14 -7 -21 -15z"/>
</g>
</svg>
